<svg width="241" height="395" viewBox="0 0 241 395" fill="none" xmlns="http://www.w3.org/2000/svg">
<path d="M159.975 177.574C135.564 159.211 108.774 159.399 58.1 188.909C23.6731 208.958 -4.00358 205.845 -26.5226 185.389C-20.2316 186.149 -4.67915 191.091 9.92066 186.857C36.4583 179.161 35.0851 174.699 85.1303 152.368C135.175 130.037 151.446 166.56 159.975 177.574Z" fill="#6E9564"/>
<path d="M103.958 161.32C94.0708 157.013 76.0475 165.701 43.0533 185.732C18.9718 200.351 8.07914 196.85 -5.00026 193.525C-1.68052 193.238 11.564 195.261 20.825 191.687C37.6586 185.192 44.8798 181.488 64.5195 170.085C84.3558 158.568 100.21 156.48 103.958 161.32Z" fill="white"/>
<path d="M34.3674 171.635C-2.52856 200.705 -24.9674 178.21 -32.0005 178.998C-24.1625 171.728 1.62931 169.312 26.2915 152.745C61.909 128.819 65.1619 119.273 83.6996 99.4977C100.142 81.9577 124.29 62.136 140.314 54.1556C144.533 52.054 181.491 32.5938 197.685 47.3955C151.685 40.1674 100.556 94.4727 93.4932 102.744C68.5732 131.929 59.0085 152.221 34.3674 171.635Z" fill="#6E9564"/>
<path d="M64.5753 128.668C58.2444 139.373 46.0945 153.802 22.8626 167.732C3.08311 179.592 -8.4183 175.975 -20 174.307C-17.1754 173.842 -4.43912 173.004 1.04282 172.408C24.128 169.896 49.2642 149.755 64.5753 128.668Z" fill="white"/>
<path d="M-4.55118 257.721C0.486392 231.787 20.6519 234.489 36.7481 238.598C44.5889 239.348 52.0722 230.767 50.1173 225.984C47.8862 220.524 35.0931 212.715 41.193 206.433C46.2544 201.22 55.8892 195.153 73.4169 204.609C78.7203 207.47 83.3012 210.999 87.387 214.984C114.117 241.054 133.93 268.287 174.987 275.165C194.872 278.496 200.6 287.523 203.596 293.189C191.041 280.975 130.055 299.539 95.8912 309.092C68.5601 316.734 41.705 309.295 31.6938 304.62C18.9762 300.6 -8.50197 278.06 -4.55118 257.721Z" fill="white" stroke="#6E9564"/>
<path d="M49.0828 241.769C36.5303 225.911 -12.0861 213.619 -17.6706 212.526L1.63861 207.447C15.2091 211.496 45.4971 229.352 51.5641 238.667C56.4832 246.219 81.4435 269.227 102.226 280.09C87.3497 275.801 61.6353 257.628 49.0828 241.769Z" fill="#6E9564"/>
<path d="M48.3347 258.222C53.8667 254.039 56.2384 249.785 56.7765 248.675C56.2966 247.398 54.9364 245.243 53.9351 247.308C51.2445 252.858 46.4759 257.167 43.4345 258.764C39.5535 260.801 31.5686 260.706 26.343 261.494C22.7153 262.245 16.0042 263.687 12.8628 266.766C19.0583 264.19 25.0477 263.528 31.3687 263.669C37.6897 263.811 43.283 262.042 48.3347 258.222Z" fill="#6E9564"/>
<path d="M67.5544 239.515C62.7394 243.155 57.9466 244.543 56.6987 244.847C55.2973 244.416 52.9517 243.296 55.2737 242.729C61.5136 241.206 66.4436 238.118 68.3112 236.066C70.6943 233.449 70.8426 227.761 71.8827 224.099C72.8313 221.57 74.6442 216.897 78.1581 214.879C75.1044 219.106 74.1795 223.32 74.1352 227.828C74.0909 232.335 71.9515 236.19 67.5544 239.515Z" fill="#6E9564"/>
<path d="M62.0828 267.895C66.0372 263.378 67.2883 259.455 67.5461 258.448C66.9069 257.516 65.3599 256.058 64.8803 257.932C63.5916 262.966 60.3098 267.427 58.0088 269.344C55.0726 271.789 48.2574 273.359 43.9508 275.073C40.998 276.428 35.5449 278.977 33.4263 282.11C38.2358 278.752 43.2153 276.982 48.6222 275.792C54.0292 274.602 58.4717 272.021 62.0828 267.895Z" fill="#6E9564"/>
<path d="M77.9773 253.423C72.5885 255.599 68.184 255.873 67.0614 255.897C66.1326 255.269 64.7485 253.883 66.8372 253.839C72.4501 253.721 77.6935 252.034 80.0577 250.65C83.0746 248.883 85.6319 244.102 88.0294 241.201C89.8677 239.242 93.3129 235.631 96.9714 234.583C92.7316 237.584 90.1888 240.974 88.2204 244.776C86.2521 248.578 82.8982 251.436 77.9773 253.423Z" fill="#6E9564"/>
<path d="M78.7766 275.915C81.3603 272.963 82.2799 270.449 82.4775 269.805C82.128 269.228 81.2494 268.339 80.8818 269.537C79.8938 272.756 77.7204 275.658 76.2462 276.923C74.365 278.539 70.1669 279.686 67.4845 280.869C65.638 281.793 62.226 283.53 60.8126 285.563C63.8673 283.328 66.9602 282.095 70.2885 281.22C73.6168 280.345 76.4172 278.61 78.7766 275.915Z" fill="#6E9564"/>
<path d="M87.423 266.612C84.1801 268 81.4829 268.197 80.7941 268.218C80.2041 267.832 79.3108 266.975 80.5925 266.935C84.0369 266.83 87.2057 265.747 88.6151 264.87C90.4136 263.751 91.8364 260.755 93.2193 258.931C94.2878 257.699 96.2924 255.427 98.5073 254.752C95.9958 256.648 94.5388 258.777 93.4474 261.16C92.3561 263.543 90.3844 265.345 87.423 266.612Z" fill="#6E9564"/>
</svg>
