<svg width="303" height="184" viewBox="0 0 303 184" fill="none" xmlns="http://www.w3.org/2000/svg">
<path d="M156.095 0.0713548C149.973 41.2477 126.398 67.7986 57.6457 91.307C10.9369 107.278 -10.6781 137.738 -13.4126 178.945C-8.54298 171.973 0.957373 151.931 17.2289 141.247C46.8053 121.827 49.3018 127.285 111.556 97.8264C173.809 68.3678 157.767 18.6717 156.095 0.0713548Z" fill="#6E9564"/>
<path d="M124.357 67.4126C119.284 81.2212 96.3285 91.2388 50.8868 105.797C17.7203 116.423 11.0998 130.497 2.42119 146.59C5.56147 143.542 15.4628 128.476 26.5199 122.513C46.618 111.673 56.0003 107.864 82.618 98.721C109.502 89.4868 125.092 75.5855 124.357 67.4126Z" fill="white"/>
<path d="M53.7927 130.502C-3.23383 135.587 -8.05258 178.322 -15.3902 183.982C-2.46207 183.982 24.093 162.759 60.082 156.535C112.058 147.545 122.277 153.988 154.772 156.535C183.594 158.794 221.509 156.251 242.823 149.46C248.436 147.672 298.379 133.049 302.921 103.621C264.137 152.856 174.688 146.065 161.76 144.367C116.144 138.377 91.8782 127.107 53.7927 130.502Z" fill="#6E9564"/>
<path d="M118.434 144.832C104.807 138.991 82.7939 134.18 49.9495 139.274C21.9859 143.61 12.8415 157.132 2.29723 168.682C5.45885 166.777 18.8634 156.872 24.7924 152.855C49.76 135.938 88.7284 135.731 118.434 144.832Z" fill="white"/>
</svg>
